<svg width="103" height="127" viewBox="0 0 103 127" fill="none" xmlns="http://www.w3.org/2000/svg">
<path d="M-2.86702e-05 9.4275L34.1028 9.42741L60.3131 73.5977L30.1738 82.9903L-2.86702e-05 9.4275Z" fill="#E7A276"/>
<path d="M102.487 9.4275L68.384 9.42741L42.1737 73.5977L72.313 82.9903L102.487 9.4275Z" fill="#E7A276"/>
<ellipse cx="51" cy="90.1724" rx="36" ry="35.9" fill="#EDDED4"/>
<path d="M56.4627 90.2817C58.7827 88.8817 60.6227 86.6417 60.6227 84.0017C60.6227 79.4817 56.7827 76.1617 51.2627 76.1617C45.6627 76.1617 41.8227 79.4817 41.8227 84.3617H46.5427C46.5427 82.4417 47.9427 80.6017 51.2627 80.6017C54.5427 80.6017 56.2227 82.4817 56.2227 84.3217C56.2227 86.2817 54.4627 88.2017 51.1427 88.2017H49.0227V92.4417H51.0627C55.1027 92.4417 56.6627 94.5617 56.6627 96.7217C56.6627 98.8817 54.7427 101.002 50.9827 101.002C47.2627 101.002 45.6627 98.8417 45.6627 96.7217H40.9427C40.9427 101.922 44.9027 105.442 50.9827 105.442C57.1027 105.442 61.1027 101.922 61.1027 97.0817C61.1027 94.1617 58.9827 91.7617 56.4627 90.2817Z" fill="#E7A276"/>
</svg>
