<svg width="103" height="127" viewBox="0 0 103 127" fill="none" xmlns="http://www.w3.org/2000/svg">
<path d="M-2.86702e-05 9.4275L34.1028 9.42741L60.3131 73.5977L30.1738 82.9903L-2.86702e-05 9.4275Z" fill="#EF8E54"/>
<path d="M102.487 9.4275L68.384 9.42741L42.1737 73.5977L72.313 82.9903L102.487 9.4275Z" fill="#EF8E54"/>
<ellipse cx="51" cy="90.1724" rx="36" ry="35.9" fill="#ECECEC"/>
<path d="M42.5542 100.082V104.882H61.1942V100.082H49.9542C55.0342 95.9617 60.7942 91.4817 60.7942 85.5617C60.7942 80.0017 55.7942 76.2017 51.3142 76.2017C48.7142 76.2017 44.0342 77.4817 41.7542 82.5617L46.1542 84.5617C47.4742 81.6417 49.5942 81.0017 51.3142 81.0017C53.7942 81.0017 55.9942 82.6417 55.9942 85.5617C55.9942 90.3217 48.3942 94.4817 42.5942 100.082H42.5542Z" fill="#EF8E54"/>
</svg>
