<svg width="304" height="214" viewBox="0 0 304 214" fill="none" xmlns="http://www.w3.org/2000/svg">
<path fill-rule="evenodd" clip-rule="evenodd" d="M27 3C13.7452 3 3 13.7452 3 27V187C3 200.255 13.7451 211 27 211H142.858H149.142H289C295.627 211 301 205.627 301 199V86V54V25C301 16.7157 294.284 10 286 10H166.083C161.742 5.67416 155.754 3 149.142 3H27Z" fill="#FFDBA6"/>
<path d="M166.083 10L164.318 11.7708L165.05 12.5H166.083V10ZM5.5 27C5.5 15.1259 15.1259 5.5 27 5.5V0.5C12.3645 0.5 0.5 12.3645 0.5 27H5.5ZM5.5 187V27H0.5V187H5.5ZM27 208.5C15.1259 208.5 5.5 198.874 5.5 187H0.5C0.5 201.636 12.3644 213.5 27 213.5V208.5ZM142.858 208.5H27V213.5H142.858V208.5ZM149.142 208.5H142.858V213.5H149.142V208.5ZM289 208.5H149.142V213.5H289V208.5ZM298.5 199C298.5 204.247 294.247 208.5 289 208.5V213.5C297.008 213.5 303.5 207.008 303.5 199H298.5ZM298.5 86V199H303.5V86H298.5ZM298.5 54V86H303.5V54H298.5ZM298.5 25V54H303.5V25H298.5ZM286 12.5C292.904 12.5 298.5 18.0964 298.5 25H303.5C303.5 15.335 295.665 7.5 286 7.5V12.5ZM166.083 12.5H286V7.5H166.083V12.5ZM149.142 5.5C155.066 5.5 160.427 7.89288 164.318 11.7708L167.848 8.22919C163.057 3.45543 156.442 0.5 149.142 0.5V5.5ZM27 5.5H149.142V0.5H27V5.5Z" fill="#447EFF"/>
<rect x="126" y="10" width="175" height="91" rx="15" fill="#FFD178"/>
<path fill-rule="evenodd" clip-rule="evenodd" d="M3 27C3 13.7452 13.7452 3 27 3H149.142C161.388 3 171.491 12.1711 172.959 24.0195C183.165 41.5834 209.372 42 218.5 42H289C295.627 42 301 47.3726 301 54V199C301 205.627 295.627 211 289 211H149.142H142.858H27C13.7451 211 3 200.255 3 187V27Z" fill="#FFDBA6"/>
</svg>
