<svg width="306" height="216" viewBox="0 0 306 216" fill="none" xmlns="http://www.w3.org/2000/svg">
<path fill-rule="evenodd" clip-rule="evenodd" d="M28 4C14.7452 4 4 14.7452 4 28V188C4 201.255 14.7451 212 28 212H143.858H150.142H290C296.627 212 302 206.627 302 200V87V55V26C302 17.7157 295.284 11 287 11H167.083C162.742 6.67416 156.754 4 150.142 4H28Z" fill="#FFDBA6"/>
<path d="M167.083 11L164.259 13.8333L165.43 15H167.083V11ZM8 28C8 16.9543 16.9543 8 28 8V0C12.536 0 0 12.536 0 28H8ZM8 188V28H0V188H8ZM28 208C16.9543 208 8 199.046 8 188H0C0 203.464 12.536 216 28 216V208ZM143.858 208H28V216H143.858V208ZM150.142 208H143.858V216H150.142V208ZM290 208H150.142V216H290V208ZM298 200C298 204.418 294.418 208 290 208V216C298.837 216 306 208.837 306 200H298ZM298 87V200H306V87H298ZM298 55V87H306V55H298ZM298 26V55H306V26H298ZM287 15C293.075 15 298 19.9249 298 26H306C306 15.5066 297.493 7 287 7V15ZM167.083 15H287V7H167.083V15ZM150.142 8C155.653 8 160.638 10.2241 164.259 13.8333L169.907 8.1667C164.847 3.1242 157.855 0 150.142 0V8ZM28 8H150.142V0H28V8Z" fill="#F9761E" fill-opacity="0.65"/>
<rect x="127" y="11" width="175" height="91" rx="15" fill="#FFD178"/>
<path fill-rule="evenodd" clip-rule="evenodd" d="M4 28C4 14.7452 14.7452 4 28 4H150.142C162.388 4 172.491 13.1711 173.959 25.0195C184.165 42.5834 210.372 43 219.5 43H290C296.627 43 302 48.3726 302 55V200C302 206.627 296.627 212 290 212H150.142H143.858H28C14.7451 212 4 201.255 4 188V28Z" fill="#FFDBA6"/>
</svg>
